<svg width="16" height="16" viewBox="0 0 16 16" fill="none" xmlns="http://www.w3.org/2000/svg">
<path fill-rule="evenodd" clip-rule="evenodd" d="M8 16C4.22876 16 2.34314 16 1.17158 14.8284C-8.71931e-08 13.6569 0 11.7712 0 8C0 4.22876 -8.71931e-08 2.34314 1.17158 1.17158C2.34314 -8.71931e-08 4.22876 0 8 0C11.7712 0 13.6569 -8.71931e-08 14.8284 1.17158C16 2.34314 16 4.22876 16 8C16 11.7712 16 13.6569 14.8284 14.8284C13.6569 16 11.7712 16 8 16ZM8 5C8.33136 5 8.6 5.26863 8.6 5.6V7.4H10.4C10.7314 7.4 11 7.66864 11 8C11 8.33136 10.7314 8.6 10.4 8.6H8.6V10.4C8.6 10.7314 8.33136 11 8 11C7.66864 11 7.4 10.7314 7.4 10.4V8.6H5.6C5.26863 8.6 5 8.33136 5 8C5 7.66864 5.26863 7.4 5.6 7.4H7.4V5.6C7.4 5.26863 7.66864 5 8 5Z" fill="#E3E8F0"/>
</svg>
