<svg xmlns="http://www.w3.org/2000/svg" style="display: none;">

    <symbol id="icon-no-entry" viewBox="0 0 490.23 510.48">
        <g id="_01">
            <path d="m468.75,177.33C573.46,463.17,122.15,621.07,25.85,332.25-78.85,46.42,372.46-111.47,468.75,177.33Z"
                fill="#c4d1e8" stroke-width="0" />
            <path
                d="m347.33,393.86c19.85,48.02-55.93,78.13-74.45,29.58-19.85-48.01,55.93-78.13,74.45-29.58Zm-64,25.43c13.32,34.92,67.84,13.25,53.55-21.28-13.32-34.92-67.84-13.25-53.55,21.28Z"
                fill="#b0bdd1" stroke-width="0" />
            <path d="m233.21,58.85c.15,10.36-16.12,10.36-15.96,0-.15-10.36,16.12-10.36,15.96,0Z" fill="#b0bdd1"
                fill-rule="evenodd" stroke-width="0" />
            <path d="m403.07,438.1c.15,10.36-16.12,10.36-15.96,0-.15-10.36,16.12-10.36,15.96,0Z" fill="#b0bdd1"
                fill-rule="evenodd" stroke-width="0" />
            <path d="m411.05,200.26c.15,10.36-16.12,10.36-15.96,0-.15-10.36,16.12-10.36,15.96,0Z" fill="#b0bdd1"
                fill-rule="evenodd" stroke-width="0" />
            <path
                d="m203.09,23.24c23.67,17.49-20.4,18.13-32.09,20.89-5.16,3.3-6.6,9.86-12.4,13.22-52.68,2.04-30.04,22.46-62.39,20.28,1.1-9.54,18.95-18.76,29.4-27.97,9.45-3.45,19.58,2.67,27.4-1.99,10.46-23.86,36.74-8.56,50.08-24.43Z"
                fill="#b0bdd1" fill-rule="evenodd" stroke-width="0" />
            <path d="m485.05,189.78c-23.41,19.98-19.65,20.34-38.35-4.05,23.41-19.98,19.65-20.34,38.35,4.05Z"
                fill="#b0bdd1" fill-rule="evenodd" stroke-width="0" />
            <path
                d="m173.44,466.48s2.42,18.12,2.42,18.12c-8.43-3.47-25.39-10.44-33.82-13.92,7.22-5.56,21.74-16.76,28.96-22.32,0,0,2.43,18.12,2.43,18.12Z"
                fill="#b0bdd1" fill-rule="evenodd" stroke-width="0" />
            <path
                d="m23.46,288.89s1.81,13.54,1.81,13.54c-6.3-2.59-18.97-7.8-25.27-10.4,5.39-4.15,16.25-12.53,21.64-16.68,0,0,1.81,13.54,1.81,13.54Z"
                fill="#b0bdd1" fill-rule="evenodd" stroke-width="0" />
            <path d="m244.17,500.79c-4.52-5.51-9.9-152.66-26.79-144.69-14.83-13.65,6.68,201.91,26.79,144.69Z"
                fill="#b0bdd1" stroke-width="0" />
            <path d="m349.51,69.28C-23.51,115.19-4.56,48.31,54.7,435.24c373-45.93,354.05,20.95,294.81-365.96Z"
                fill="#d8dce5" stroke-width="0" />
            <path d="m307.41,202.36C198.47,10.22-40.59,284.94,164.63,366.33c95.2,35.75,191.27-74.64,142.79-163.97Z"
                fill="#e3e7f0" stroke-width="0" />
            <path
                d="m316.89,197.65C198.15-11.77-62.41,287.65,161.26,376.36c103.76,38.97,208.47-81.35,155.63-178.71Zm-161.4-36.51c37.94-19.26,85.46-12.4,116.65,16.04-6.04-5.05-165.8,165.94-163.7,124.17-25.69-51.64-4.58-114.53,47.05-140.21Zm145.7,126.91c-21.23,70.82-118.7,95.05-170.8,42.92,51.18-19.43,203.82-252.06,170.8-42.92Z"
                fill="#f1bba0" stroke-width="0" />
            <path d="m299.86,86.32c11.13-.22,29.92,9.56,23.61,21.43-9.37,12.35-57.61-20.23-23.61-21.43Z" fill="#fff"
                stroke-width="0" />
            <path d="m335.68,110.92c6.57.63,11.57,16.09,1.62,15.13-6.6-.56-10.92-15.44-1.62-15.13Z" fill="#fff"
                stroke-width="0" />
            <path d="m83.58,421.13c-7.73-2.21-13.48-5.98-17.7-11.94-17.72-43.41,62.27,16.87,17.7,11.94Z" fill="#fff"
                stroke-width="0" />
            <path
                d="m478.68,338.09c-26.32,45.66-97.64,42.88-120.86-3.78,0,0-39.06-2.12-39.06-2.12l31.63-20.56c-12.82-124.64,189.44-83.5,128.29,26.47Z"
                fill="#bccafc" stroke-width="0" />
            <path d="m387.25,317.35c-12.29,3.71-14.31-57.96-1.7-55.01,12.29-3.71,14.31,57.96,1.7,55.01Z" fill="#e3e7f0"
                stroke-width="0" />
            <path d="m395.66,329.15c.45,10.46-15.99,10.93-16.13.46-.45-10.46,15.99-10.93,16.13-.46Z" fill="#e3e7f0"
                stroke-width="0" />
            <path d="m418.93,314.25c-12.5,3.12-11.37-58.47,1.02-54.95,12.5-3.12,11.38,58.47-1.02,54.95Z" fill="#e3e7f0"
                stroke-width="0" />
            <path d="m426.78,326.44c-.04,10.47-16.48,10.17-16.14-.3.04-10.47,16.48-10.17,16.14.3Z" fill="#e3e7f0"
                stroke-width="0" />
            <path d="m450.93,322.12c-12.54,2.98-10.71-58.4,1.64-54.76,12.54-2.98,10.71,58.4-1.64,54.76Z" fill="#e3e7f0"
                stroke-width="0" />
            <path d="m458.64,334.39c-.15,10.47-16.6,9.99-16.13-.47.15-10.47,16.6-9.99,16.13.47Z" fill="#e3e7f0"
                stroke-width="0" />
            <path
                d="m413.11,168.59c-48.78-29.42-76.15-32.79-2.6-54.71-71.73-18.43-44.65-20.91-22.56-74.35-45.04,10.73-68.75,55.24-73.33-17.26-14.18,23.1-10.76,63.97-44.57,27.92.24,4.96,8.75,21.76.08,23.5-8.11,4.48-22.13-52.33-5.53-41.47,0,0,25.38,20.15,25.38,20.15,23.34-55.1,29.92-82.7,40.6-1.09,4.85,2.21,79.3-42.51,73.09-19.62-24.81,58.8-50.08,56.58,24.72,76.85,4.69,1.38,4.85,8.56.17,10.1,0,0-48.27,17.81-48.27,17.81,2.35,4.23,54.92,25.65,32.82,32.17Z"
                fill="#b0bdd1" stroke-width="0" />
        </g>
    </symbol>

    <symbol id="icon-edit" viewBox="0 0 24 24">
        <path d="M20.1497 7.93997L8.27971 19.81C7.21971 20.88 4.04971 21.3699 3.27971 20.6599C2.50971 19.9499 3.06969 16.78 4.12969 15.71L15.9997 3.84C16.5478 3.31801 17.2783 3.03097 18.0351 3.04019C18.7919 3.04942 19.5151 3.35418 20.0503 3.88938C20.5855 4.42457 20.8903 5.14781 20.8995 5.90463C20.9088 6.66146 20.6217 7.39189 20.0997 7.93997H20.1497Z" fill="current-color" />
        <path d="M21 21H12" stroke="#718096" stroke-width="1.5" stroke-linecap="round" stroke-linejoin="round"/>
    </symbol>

    <symbol id="icon-add" viewBox="0 0 16 16">
        <path fill-rule="evenodd" clip-rule="evenodd" d="M8 16C4.22876 16 2.34314 16 1.17158 14.8284C-8.71931e-08 13.6569 0 11.7712 0 8C0 4.22876 -8.71931e-08 2.34314 1.17158 1.17158C2.34314 -8.71931e-08 4.22876 0 8 0C11.7712 0 13.6569 -8.71931e-08 14.8284 1.17158C16 2.34314 16 4.22876 16 8C16 11.7712 16 13.6569 14.8284 14.8284C13.6569 16 11.7712 16 8 16ZM8 5C8.33136 5 8.6 5.26863 8.6 5.6V7.4H10.4C10.7314 7.4 11 7.66864 11 8C11 8.33136 10.7314 8.6 10.4 8.6H8.6V10.4C8.6 10.7314 8.33136 11 8 11C7.66864 11 7.4 10.7314 7.4 10.4V8.6H5.6C5.26863 8.6 5 8.33136 5 8C5 7.66864 5.26863 7.4 5.6 7.4H7.4V5.6C7.4 5.26863 7.66864 5 8 5Z" fill="#E3E8F0"/>
    </symbol>


</svg>